<svg xmlns="http://www.w3.org/2000/svg"  viewBox="0 0 32 32" width="32px" height="32px"><path fill="#333" d="M4,31h24c1.103,0,2-0.897,2-2V14.751c0-4.369-2.092-8.26-5.336-10.781 c-0.002-0.001-0.002-0.003-0.004-0.005c-0.003-0.002-0.007-0.003-0.009-0.005C22.267,2.113,19.266,1,16,1C8.28,1,2,7.169,2,14.751 V29C2,30.103,2.897,31,4,31z M4,29v-7h5.142c0.447,1.72,1.999,3,3.858,3s3.411-1.28,3.858-3H28l0,7H4z M13,19c1.103,0,2,0.897,2,2 s-0.897,2-2,2s-2-0.897-2-2S11.897,19,13,19z M28,14.751L28,20H16.858c-0.293-1.129-1.063-2.057-2.086-2.568l9.375-11.284 C26.51,8.296,28,11.353,28,14.751z M16,3c2.422,0,4.675,0.712,6.563,1.925L12.487,17.052c-1.626,0.211-2.94,1.39-3.345,2.948H4 v-5.249C4,8.271,9.383,3,16,3z"/><path fill="#333" d="M23.254,8.333c-0.367,0.412-0.332,1.044,0.08,1.412c1.094,0.978,1.745,2.626,1.659,4.2 c-0.03,0.552,0.392,1.023,0.943,1.053C25.955,15,25.974,15,25.992,15c0.527,0,0.969-0.413,0.997-0.945 c0.12-2.19-0.771-4.413-2.323-5.8C24.255,7.887,23.624,7.921,23.254,8.333z"/></svg>