<svg xmlns="http://www.w3.org/2000/svg"  viewBox="0 0 50 50" width="50px" height="50px"><path d="M 25 1 C 22.109375 1 19.371094 1.582031 17.3125 3.1875 C 15.433594 4.652344 14.230469 6.988281 14.03125 10.09375 C 11.746094 10.550781 10 12.585938 10 15 L 10 19 C 9.996094 19.042969 9.996094 19.082031 10 19.125 C 8.765625 20.390625 8 22.109375 8 24 L 8 30 C 8 30.765625 8.300781 31.46875 8.78125 32 C 8.300781 32.53125 8 33.234375 8 34 C 8 34.765625 8.300781 35.46875 8.78125 36 C 8.300781 36.53125 8 37.234375 8 38 C 8 39.644531 9.355469 41 11 41 L 14 41 L 14 44.8125 C 13.972656 44.945313 13.972656 45.085938 14 45.21875 L 14 47 C 14 47.523438 14.183594 48.058594 14.5625 48.4375 C 14.941406 48.816406 15.476563 49 16 49 L 34 49 C 34.523438 49 35.058594 48.816406 35.4375 48.4375 C 35.816406 48.058594 36 47.523438 36 47 L 36 45.15625 C 36.027344 45.023438 36.027344 44.882813 36 44.75 L 36 41 L 39 41 C 40.644531 41 42 39.644531 42 38 C 42 37.234375 41.699219 36.53125 41.21875 36 C 41.699219 35.46875 42 34.765625 42 34 C 42 33.234375 41.699219 32.53125 41.21875 32 C 41.699219 31.46875 42 30.765625 42 30 L 42 24 C 42 22.117188 41.222656 20.417969 40 19.15625 C 40.003906 19.105469 40.003906 19.050781 40 19 L 40 15 C 40 12.585938 38.253906 10.550781 35.96875 10.09375 C 35.773438 6.941406 34.574219 4.613281 32.6875 3.15625 C 30.625 1.5625 27.882813 1 25 1 Z M 25 3 C 27.617188 3 29.875 3.542969 31.4375 4.75 C 32.921875 5.898438 33.910156 7.65625 34 10.5625 C 33.875 10.832031 33.875 11.136719 34 11.40625 C 33.914063 14.332031 32.929688 16.097656 31.4375 17.25 C 29.875 18.457031 27.617188 19 25 19 C 22.390625 19 20.128906 18.4375 18.5625 17.21875 C 17.03125 16.023438 16.039063 14.199219 16 11.1875 C 16.027344 11.054688 16.027344 10.914063 16 10.78125 C 16.046875 7.789063 17.035156 5.972656 18.5625 4.78125 C 20.128906 3.5625 22.390625 3 25 3 Z M 25 5 C 23.519531 5 21.894531 5.371094 20.53125 6.15625 C 19.167969 6.941406 18 8.265625 18 10 L 18 12 C 18 13.644531 19.355469 15 21 15 L 29 15 C 30.644531 15 32 13.644531 32 12 L 32 10 C 32 8.296875 30.828125 6.980469 29.46875 6.1875 C 28.109375 5.394531 26.492188 5 25 5 Z M 25 7 C 26.109375 7 27.476563 7.355469 28.46875 7.9375 C 29.460938 8.519531 30 9.203125 30 10 L 30 12 C 30 12.554688 29.554688 13 29 13 L 21 13 C 20.445313 13 20 12.554688 20 12 L 20 10 C 20 9.136719 20.546875 8.472656 21.53125 7.90625 C 22.515625 7.339844 23.878906 7 25 7 Z M 14.0625 12.1875 C 14.226563 14.113281 14.785156 15.71875 15.65625 17 L 15 17 C 13.925781 17 12.914063 17.25 12 17.6875 L 12 15 C 12 13.679688 12.875 12.585938 14.0625 12.1875 Z M 35.9375 12.1875 C 37.125 12.585938 38 13.679688 38 15 L 38 17.6875 C 37.085938 17.25 36.074219 17 35 17 L 34.40625 17 C 35.253906 15.722656 35.78125 14.113281 35.9375 12.1875 Z M 17.5 18.96875 C 19.535156 20.464844 22.199219 21 25 21 C 27.792969 21 30.460938 20.484375 32.5 19 C 32.5625 19.007813 32.625 19.007813 32.6875 19 L 35 19 C 37.753906 19 40 21.246094 40 24 L 40 30 C 40 30.554688 39.554688 31 39 31 L 36 31 L 36 26 C 36.003906 25.640625 35.816406 25.304688 35.503906 25.121094 C 35.191406 24.941406 34.808594 24.941406 34.496094 25.121094 C 34.183594 25.304688 33.996094 25.640625 34 26 L 34 31.8125 C 33.972656 31.945313 33.972656 32.085938 34 32.21875 L 34 35.8125 C 33.972656 35.945313 33.972656 36.085938 34 36.21875 L 34 39.8125 C 33.972656 39.945313 33.972656 40.085938 34 40.21875 L 34 43.0625 C 33.007813 42.519531 31.644531 42 30 42 C 28.355469 42 26.992188 42.519531 26 43.0625 L 26 38 C 26.007813 37.691406 25.871094 37.398438 25.632813 37.203125 C 25.398438 37.007813 25.082031 36.933594 24.78125 37 C 24.316406 37.105469 23.988281 37.523438 24 38 L 24 43.0625 C 23.007813 42.519531 21.644531 42 20 42 C 18.355469 42 16.992188 42.519531 16 43.0625 L 16 40.1875 C 16.027344 40.054688 16.027344 39.914063 16 39.78125 L 16 36.1875 C 16.027344 36.054688 16.027344 35.914063 16 35.78125 L 16 32.1875 C 16.027344 32.054688 16.027344 31.914063 16 31.78125 L 16 26 C 16.007813 25.691406 15.871094 25.398438 15.632813 25.203125 C 15.398438 25.007813 15.082031 24.933594 14.78125 25 C 14.316406 25.105469 13.988281 25.523438 14 26 L 14 31 L 11 31 C 10.445313 31 10 30.554688 10 30 L 10 24 C 10 21.246094 12.246094 19 15 19 L 17.3125 19 C 17.375 18.996094 17.4375 18.984375 17.5 18.96875 Z M 21 23 C 20.476563 23 19.941406 23.183594 19.5625 23.5625 C 19.183594 23.941406 19 24.476563 19 25 L 19 31 C 19 31.523438 19.183594 32.058594 19.5625 32.4375 C 19.941406 32.816406 20.476563 33 21 33 L 29 33 C 29.523438 33 30.058594 32.816406 30.4375 32.4375 C 30.816406 32.058594 31 31.523438 31 31 L 31 25 C 31 24.476563 30.816406 23.941406 30.4375 23.5625 C 30.058594 23.183594 29.523438 23 29 23 Z M 21 25 L 29 25 L 29 31 L 21 31 Z M 11 33 L 14 33 L 14 35 L 11.0625 35 C 11.042969 35 11.019531 35 11 35 C 10.445313 35 10 34.554688 10 34 C 10 33.445313 10.445313 33 11 33 Z M 36 33 L 39 33 C 39.554688 33 40 33.445313 40 34 C 40 34.554688 39.554688 35 39 35 L 36 35 Z M 11 37 C 11.03125 37 11.0625 37 11.09375 37 L 14 37 L 14 39 L 11 39 C 10.445313 39 10 38.554688 10 38 C 10 37.445313 10.445313 37 11 37 Z M 36 37 L 39 37 C 39.554688 37 40 37.445313 40 38 C 40 38.554688 39.554688 39 39 39 L 36 39 Z M 20 44 C 21.984375 44 23.433594 45.003906 24 45.46875 L 24 47 L 16 47 L 16 45.46875 C 16.566406 45.003906 18.015625 44 20 44 Z M 30 44 C 31.984375 44 33.433594 45.003906 34 45.46875 L 34 47 L 26 47 L 26 45.46875 C 26.566406 45.003906 28.015625 44 30 44 Z"/></svg>